<svg width="31" height="30" viewBox="0 0 31 30" fill="none" xmlns="http://www.w3.org/2000/svg">
<path d="M29.1549 1.44201L23.0613 0.0357891C22.3992 -0.116551 21.7195 0.229145 21.45 0.850226L18.6376 7.41259C18.3915 7.9868 18.5555 8.66061 19.0419 9.05318L22.5926 11.9594C20.4832 16.4534 16.7978 20.1916 12.21 22.342L9.30377 18.7913C8.90534 18.3049 8.23739 18.1409 7.66318 18.387L1.10081 21.1994C0.473872 21.4748 0.128176 22.1545 0.280517 22.8166L1.68674 28.9102C1.83322 29.543 2.39571 30 3.0578 30C18.0634 30 30.2448 17.8421 30.2448 2.81308C30.2448 2.15684 29.7936 1.58849 29.1549 1.44201Z" fill="#001E64"/>
</svg>
